HIERARCHY
ROOT Pelvis
{
	OFFSET 0.000000 0.000000 0.000000
	CHANNELS 6 Xposition Yposition Zposition Xrotation Yrotation Zrotation
	JOINT LeftUpLeg_virtual
	{
		OFFSET 0.000000 0.000000 0.000000
		CHANNELS 3 Xrotation Yrotation Zrotation
		JOINT LeftUpLeg
		{
			OFFSET 18.735201 -5.666702 -4.541200
			CHANNELS 3 Xrotation Yrotation Zrotation
			JOINT LeftLeg
			{
				OFFSET -0.021200 -31.938179 0.493100
				CHANNELS 3 Xrotation Yrotation Zrotation
				JOINT LeftFoot
				{
					OFFSET 0.021200 -31.938179 -4.336299
					CHANNELS 3 Xrotation Yrotation Zrotation
					JOINT LeftToeBase
					{
						OFFSET 0.943001 -26.722000 15.023500
						CHANNELS 3 Xrotation Yrotation Zrotation
						End Site
						{
							OFFSET 0 0 0
						}
					}
				}
			}
		}
	}
	JOINT RightUpLeg_virtual
	{
		OFFSET 0.000000 0.000000 0.000000
		CHANNELS 3 Xrotation Yrotation Zrotation
		JOINT RightUpLeg
		{
			OFFSET -18.735201 -5.666702 -4.541200
			CHANNELS 3 Xrotation Yrotation Zrotation
			JOINT RightLeg
			{
				OFFSET 0.018946 -31.938133 0.493100
				CHANNELS 3 Xrotation Yrotation Zrotation
				JOINT RightFoot
				{
					OFFSET -0.018946 -31.938126 -4.336299
					CHANNELS 3 Xrotation Yrotation Zrotation
					JOINT RightToeBase
					{
						OFFSET -0.943001 -26.722004 15.023500
						CHANNELS 3 Xrotation Yrotation Zrotation
						End Site
						{
							OFFSET 0 0 0
						}
					}
				}
			}
		}
	}
	JOINT Hips_virtual
	{
		OFFSET 0.000000 0.000000 0.000000
		CHANNELS 3 Xrotation Yrotation Zrotation
		JOINT Hips
		{
			OFFSET -0.000000 -0.000000 -0.000000
			CHANNELS 3 Xrotation Yrotation Zrotation
			JOINT Spine
			{
				OFFSET 0.000000 10.199997 -0.299500
				CHANNELS 3 Xrotation Yrotation Zrotation
				JOINT Spine1
				{
					OFFSET 0.000000 11.900002 -1.516600
					CHANNELS 3 Xrotation Yrotation Zrotation
					JOINT Spine2
					{
						OFFSET 0.000000 13.600006 -2.842500
						CHANNELS 3 Xrotation Yrotation Zrotation
						JOINT Neck_virtual
						{
							OFFSET 0.000000 0.000000 0.000000
							CHANNELS 3 Xrotation Yrotation Zrotation
							JOINT Neck
							{
								OFFSET 0.000000 9.624100 -2.890100
								CHANNELS 3 Xrotation Yrotation Zrotation
								JOINT Head
								{
									OFFSET 0.000000 14.068802 -1.351900
									CHANNELS 3 Xrotation Yrotation Zrotation
									End Site
									{
										OFFSET 0 0 0
									}
								}
							}
						}
						JOINT LeftShoulder_virtual
						{
							OFFSET 0.000000 0.000000 0.000000
							CHANNELS 3 Xrotation Yrotation Zrotation
							JOINT LeftShoulder
							{
								OFFSET 15.263000 10.923401 -0.547700
								CHANNELS 3 Xrotation Yrotation Zrotation
								JOINT LeftArm
								{
									OFFSET 25.438599 -2.830597 -13.032500
									CHANNELS 3 Xrotation Yrotation Zrotation
									JOINT LeftForeArm
									{
										OFFSET 29.960503 0.000000 0.000000
										CHANNELS 3 Xrotation Yrotation Zrotation
										JOINT LeftHand
										{
											OFFSET 27.849251 0.000000 0.000000
											CHANNELS 3 Xrotation Yrotation Zrotation
											End Site
											{
												OFFSET 0 0 0
											}
										}
									}
								}
							}
						}
						JOINT RightShoulder_virtual
						{
							OFFSET 0.000000 0.000000 0.000000
							CHANNELS 3 Xrotation Yrotation Zrotation
							JOINT RightShoulder
							{
								OFFSET -15.263000 10.923401 -0.547700
								CHANNELS 3 Xrotation Yrotation Zrotation
								JOINT RightArm
								{
									OFFSET -25.438599 -2.830597 -13.032500
									CHANNELS 3 Xrotation Yrotation Zrotation
									JOINT RightForeArm
									{
										OFFSET -29.960503 0.000000 0.000000
										CHANNELS 3 Xrotation Yrotation Zrotation
										JOINT RightHand
										{
											OFFSET -27.849251 0.000000 0.000000
											CHANNELS 3 Xrotation Yrotation Zrotation
											End Site
											{
												OFFSET 0 0 0
											}
										}
									}
								}
							}
						}
					}
				}
			}
		}
	}
}
MOTION
Frames: 9
Frame Time: 0.03333333
-16.062355 89.142906 55.162392 0.000000 0.000000 0.000000 27.077124 -0.009570 -16.443170 -67.511550 -11.761908 16.907483 21.928662 9.370494 -14.349613 19.974600 2.812175 3.005617 0.000000 0.000000 0.000000 26.803307 0.779842 -16.979140 -0.300670 -12.482515 -15.809214 60.370738 -11.795072 3.974827 33.289546 20.289999 20.538580 0.000000 0.000000 0.000000 26.813339 0.447498 -16.933279 -0.743990 -0.067255 -0.081461 8.876006 14.413726 -3.939083 6.650274 10.493300 -4.240480 0.000000 0.000000 0.000000 4.245848 11.855510 -4.524015 -1.412106 0.097422 2.407218 0.000000 0.000000 0.000000 7.328536 11.421190 -4.173488 -1.697596 -2.274461 2.959154 25.781558 -30.057713 -21.000364 6.170947 -48.723489 10.404071 0.000000 0.000000 0.000000 6.541533 12.104137 -6.137858 12.621822 12.014578 -15.071878 -20.938942 52.276608 24.960103 9.574740 63.111194 -3.926615 0.000000 0.000000 0.000000 
-16.313351 89.141922 56.080311 0.000000 0.000000 0.000000 24.890041 -0.113573 -15.739201 -66.961829 -10.487477 19.228666 25.387863 7.367605 -15.331254 16.093807 0.168209 -0.405018 0.000000 0.000000 0.000000 24.621466 0.705794 -16.194332 -3.318125 -11.457416 -14.745388 57.463543 -12.065218 3.388355 33.354344 20.715844 17.499061 0.000000 0.000000 0.000000 24.607623 0.430948 -16.243226 -0.739720 -0.042779 -0.101948 9.480285 13.028747 -4.078593 7.216408 9.456378 -4.800959 0.000000 0.000000 0.000000 4.287466 10.659867 -4.931751 -1.495063 0.007440 2.307854 0.000000 0.000000 0.000000 7.906047 10.142961 -4.495260 -1.799560 -4.311219 4.017661 22.804588 -29.448371 -14.736615 4.680126 -49.973841 8.964151 0.000000 0.000000 0.000000 6.801612 10.884827 -6.400445 12.133665 10.933787 -14.267058 -23.006591 49.494693 18.538674 7.391343 59.037771 1.616157 0.000000 0.000000 0.000000 
-16.379688 89.264687 56.951611 0.000000 0.000000 0.000000 22.652261 -0.268465 -15.249338 -66.432694 -9.168985 21.783545 28.929095 5.288923 -16.198900 14.404048 -1.959755 -3.728285 0.000000 0.000000 0.000000 22.312983 0.405095 -15.596411 -6.476222 -10.750932 -13.977238 54.552519 -11.900599 3.028650 33.564342 21.171633 14.243526 0.000000 0.000000 0.000000 22.408580 0.205800 -15.682664 -0.734347 -0.042123 -0.106852 9.928008 11.535811 -4.227405 7.782266 8.338738 -5.311477 0.000000 0.000000 0.000000 4.653569 9.388452 -5.333144 -1.430728 -0.109340 2.202281 0.000000 0.000000 0.000000 8.434133 8.794794 -4.891262 -1.902159 -6.415858 5.179097 17.807480 -29.306610 -10.786075 2.376323 -49.990284 7.397724 0.000000 0.000000 0.000000 7.034216 9.623653 -6.595907 11.658921 9.773269 -14.551233 -24.856843 47.651822 12.916586 6.391235 55.057923 5.783756 0.000000 0.000000 0.000000 
-16.302725 89.493233 57.884064 0.000000 0.000000 0.000000 20.422501 -0.592933 -14.947374 -65.828311 -7.994397 24.318527 32.929534 3.257777 -16.730147 13.836456 -3.579477 -6.352776 0.000000 0.000000 0.000000 19.927176 -0.111147 -15.207444 -9.942017 -10.241922 -13.721385 51.992407 -11.506289 2.799998 33.335664 21.436154 11.109525 0.000000 0.000000 0.000000 20.286942 -0.313509 -15.225972 -0.730039 -0.062845 -0.091665 10.251463 9.889393 -4.412468 8.382305 7.097392 -5.638140 0.000000 0.000000 0.000000 5.388020 7.988160 -5.571354 -1.244886 -0.242753 2.110718 0.000000 0.000000 0.000000 8.947191 7.349266 -5.205890 -2.014633 -8.450981 6.393181 10.677881 -29.490400 -9.356666 -0.425271 -48.651554 5.976350 0.000000 0.000000 0.000000 7.329442 8.284222 -6.609030 11.130165 8.722232 -15.700797 -26.024701 45.986844 7.696124 6.110536 52.125401 8.794654 0.000000 0.000000 0.000000 
-16.090883 89.796387 58.771015 0.000000 0.000000 0.000000 18.305592 -1.328131 -14.768889 -64.802390 -7.272312 26.460366 36.978142 1.192734 -16.661463 12.393520 -5.049707 -8.375773 0.000000 0.000000 0.000000 17.642840 -0.992158 -14.996963 -13.462471 -9.661525 -13.735698 49.440454 -11.105935 2.484854 32.235009 21.222899 8.391127 0.000000 0.000000 0.000000 18.271939 -1.171328 -14.894068 -0.722441 -0.091798 -0.055637 10.481354 8.173686 -4.633727 9.077073 5.727493 -5.733390 0.000000 0.000000 0.000000 6.349355 6.454848 -5.562320 -0.997924 -0.390261 2.039237 0.000000 0.000000 0.000000 9.450906 5.774454 -5.355753 -2.156748 -10.340567 7.641615 1.874032 -29.703103 -10.184614 -3.217154 -46.467867 5.037714 0.000000 0.000000 0.000000 7.827215 6.842609 -6.409465 10.494756 7.887005 -17.336292 -26.626379 44.012503 2.695960 6.074640 51.107601 10.873670 0.000000 0.000000 0.000000 
-15.778316 90.089851 59.687092 0.000000 0.000000 0.000000 16.418769 -2.675689 -14.675223 -63.147954 -6.878509 28.325863 40.817269 -0.768179 -16.045253 9.286541 -6.283467 -9.850201 0.000000 0.000000 0.000000 15.611588 -2.350447 -14.946284 -16.480183 -9.108882 -13.819018 46.125056 -10.901612 2.111845 29.432504 20.468351 6.484665 0.000000 0.000000 0.000000 16.419100 -2.476345 -14.718603 -0.716690 -0.104296 -0.021725 10.723423 6.479127 -4.843998 9.797040 4.268942 -5.602904 0.000000 0.000000 0.000000 7.346335 4.841155 -5.316399 -0.770914 -0.557225 2.006414 0.000000 0.000000 0.000000 9.855966 4.107889 -5.283855 -2.313758 -12.002137 8.986983 -7.600553 -29.484636 -12.458944 -5.776872 -44.204021 4.567860 0.000000 0.000000 0.000000 8.432248 5.306954 -5.997885 9.694565 7.241473 -18.995627 -28.162151 41.594302 -1.210687 6.161045 52.376899 12.073559 0.000000 0.000000 0.000000 
-15.318620 90.346901 60.688831 0.000000 0.000000 0.000000 14.762984 -4.665232 -14.684014 -61.072109 -6.294805 30.203411 44.295717 -2.110217 -15.204006 4.753449 -7.014103 -10.687735 0.000000 0.000000 0.000000 13.836513 -4.218599 -14.990402 -18.632408 -8.717320 -13.733761 41.321886 -10.774899 1.838099 25.520712 19.595029 5.787792 0.000000 0.000000 0.000000 14.784395 -4.255353 -14.721503 -0.714285 -0.077812 -0.008447 10.991670 4.911979 -4.925327 10.465387 2.787371 -5.288932 0.000000 0.000000 0.000000 8.181898 3.209019 -4.904205 -0.655379 -0.744171 2.012576 0.000000 0.000000 0.000000 10.047839 2.442525 -5.007170 -2.446653 -13.304179 10.349013 -16.666223 -28.878204 -15.222221 -8.005001 -42.601533 4.422445 0.000000 0.000000 0.000000 8.980433 3.738078 -5.466839 8.724762 6.624529 -20.431249 -32.051810 39.244836 -2.681823 6.392865 55.300330 12.284194 0.000000 0.000000 0.000000 
-14.698618 90.549530 61.741028 0.000000 0.000000 0.000000 13.355647 -7.176102 -14.792737 -59.043734 -5.269869 32.160243 47.293125 -2.653343 -14.381978 -0.243675 -7.146612 -10.704541 0.000000 0.000000 0.000000 12.389614 -6.587477 -15.112955 -19.999089 -8.483991 -13.311589 34.579178 -10.478920 1.792205 22.396860 19.111441 6.587247 0.000000 0.000000 0.000000 13.361666 -6.435779 -14.875735 -0.707931 -0.024242 -0.017314 11.178522 3.584013 -4.717375 10.965128 1.354789 -4.880161 0.000000 0.000000 0.000000 8.682711 1.658216 -4.419603 -0.683075 -0.961594 2.062006 0.000000 0.000000 0.000000 9.973446 0.865406 -4.592651 -2.533456 -14.238690 11.722153 -24.539910 -28.189915 -17.944877 -9.936385 -42.175363 4.339106 0.000000 0.000000 0.000000 9.353649 2.195021 -4.915955 7.641182 5.922697 -21.421312 -39.200894 37.339428 -0.713845 7.062367 58.874059 11.318278 0.000000 0.000000 0.000000 
-13.948465 90.743607 62.869225 0.000000 0.000000 0.000000 12.168687 -9.884269 -14.992795 -57.418716 -3.887094 34.078447 49.937357 -2.382554 -13.691896 -4.359752 -6.632315 -9.698811 0.000000 0.000000 0.000000 11.218234 -9.223600 -15.308334 -21.010125 -8.308652 -12.688985 26.513019 -9.850627 2.007397 22.328049 19.174002 8.254111 0.000000 0.000000 0.000000 12.173197 -8.930619 -15.116983 -0.716052 0.026448 -0.030168 11.230800 2.533255 -4.161767 11.224864 0.038610 -4.446051 0.000000 0.000000 0.000000 8.811485 0.251872 -3.918118 -0.865455 -1.204526 2.148992 0.000000 0.000000 0.000000 9.647015 -0.517971 -4.103479 -2.556500 -14.767103 13.030669 -31.050743 -27.824504 -20.406993 -11.639728 -42.802770 4.121950 0.000000 0.000000 0.000000 9.399472 0.765129 -4.408190 6.562223 5.220842 -21.793554 -49.562137 35.615581 5.306201 8.540734 62.238828 8.965315 0.000000 0.000000 0.000000 
